<mxfile host="app.diagrams.net" modified="2023-06-13T10:54:14.607Z" agent="Mozilla/5.0 (Macintosh; Intel Mac OS X 10_15_7) AppleWebKit/537.36 (KHTML, like Gecko) Chrome/114.0.0.0 Safari/537.36" etag="k8BlpnXKgSU9Nfbt3QHq" version="21.3.8" type="github">
  <diagram name="第 1 页" id="lPP_x6cyo0iez9X2lXzU">
    <mxGraphModel dx="1434" dy="796" grid="1" gridSize="10" guides="1" tooltips="1" connect="1" arrows="1" fold="1" page="1" pageScale="1" pageWidth="827" pageHeight="1169" math="1" shadow="0">
      <root>
        <mxCell id="0" />
        <mxCell id="1" parent="0" />
        <mxCell id="buMhi8qow5tfLO_RZPMC-3" value="" style="edgeStyle=orthogonalEdgeStyle;rounded=0;orthogonalLoop=1;jettySize=auto;html=1;shadow=1;fillColor=#dae8fc;strokeColor=#6c8ebf;" parent="1" source="buMhi8qow5tfLO_RZPMC-1" target="buMhi8qow5tfLO_RZPMC-2" edge="1">
          <mxGeometry relative="1" as="geometry" />
        </mxCell>
        <mxCell id="buMhi8qow5tfLO_RZPMC-1" value="&lt;font style=&quot;font-size: 16px;&quot; face=&quot;Times New Roman&quot;&gt;SOURCE&lt;/font&gt;" style="rounded=0;whiteSpace=wrap;html=1;shadow=1;fillColor=#dae8fc;strokeColor=#6c8ebf;" parent="1" vertex="1">
          <mxGeometry x="140" y="280" width="100" height="60" as="geometry" />
        </mxCell>
        <mxCell id="buMhi8qow5tfLO_RZPMC-5" value="" style="edgeStyle=orthogonalEdgeStyle;rounded=0;orthogonalLoop=1;jettySize=auto;html=1;dashed=1;shadow=1;" parent="1" source="buMhi8qow5tfLO_RZPMC-2" target="buMhi8qow5tfLO_RZPMC-4" edge="1">
          <mxGeometry relative="1" as="geometry" />
        </mxCell>
        <mxCell id="buMhi8qow5tfLO_RZPMC-2" value="&lt;span style=&quot;color: rgb(0, 0, 0); font-family: &amp;quot;Times New Roman&amp;quot;; font-size: 16px; font-style: normal; font-variant-ligatures: normal; font-variant-caps: normal; font-weight: 400; letter-spacing: normal; orphans: 2; text-align: center; text-indent: 0px; text-transform: none; widows: 2; word-spacing: 0px; -webkit-text-stroke-width: 0px; text-decoration-thickness: initial; text-decoration-style: initial; text-decoration-color: initial; float: none; display: inline !important;&quot;&gt;CPS&lt;/span&gt;" style="rounded=0;whiteSpace=wrap;html=1;shadow=1;fillColor=#dae8fc;strokeColor=#6c8ebf;labelBackgroundColor=none;" parent="1" vertex="1">
          <mxGeometry x="290" y="280" width="100" height="60" as="geometry" />
        </mxCell>
        <mxCell id="buMhi8qow5tfLO_RZPMC-7" value="" style="edgeStyle=orthogonalEdgeStyle;rounded=0;orthogonalLoop=1;jettySize=auto;html=1;shadow=1;fillColor=#ffe6cc;strokeColor=#d79b00;" parent="1" source="buMhi8qow5tfLO_RZPMC-4" target="buMhi8qow5tfLO_RZPMC-6" edge="1">
          <mxGeometry relative="1" as="geometry" />
        </mxCell>
        <mxCell id="buMhi8qow5tfLO_RZPMC-4" value="&lt;span style=&quot;color: rgb(0, 0, 0); font-family: &amp;quot;Times New Roman&amp;quot;; font-size: 16px; font-style: normal; font-variant-ligatures: normal; font-variant-caps: normal; font-weight: 400; letter-spacing: normal; orphans: 2; text-align: center; text-indent: 0px; text-transform: none; widows: 2; word-spacing: 0px; -webkit-text-stroke-width: 0px; text-decoration-thickness: initial; text-decoration-style: initial; text-decoration-color: initial; float: none; display: inline !important;&quot;&gt;SSA&lt;/span&gt;" style="rounded=0;whiteSpace=wrap;html=1;shadow=1;fillColor=#ffe6cc;strokeColor=#d79b00;labelBackgroundColor=none;" parent="1" vertex="1">
          <mxGeometry x="460" y="280" width="100" height="60" as="geometry" />
        </mxCell>
        <mxCell id="buMhi8qow5tfLO_RZPMC-6" value="&lt;span style=&quot;color: rgb(0, 0, 0); font-family: &amp;quot;Times New Roman&amp;quot;; font-size: 16px; font-style: normal; font-variant-ligatures: normal; font-variant-caps: normal; font-weight: 400; letter-spacing: normal; orphans: 2; text-align: center; text-indent: 0px; text-transform: none; widows: 2; word-spacing: 0px; -webkit-text-stroke-width: 0px; text-decoration-thickness: initial; text-decoration-style: initial; text-decoration-color: initial; float: none; display: inline !important;&quot;&gt;TARGET&lt;/span&gt;" style="rounded=0;whiteSpace=wrap;html=1;shadow=1;fillColor=#ffe6cc;strokeColor=#d79b00;labelBackgroundColor=none;" parent="1" vertex="1">
          <mxGeometry x="610" y="280" width="100" height="60" as="geometry" />
        </mxCell>
        <mxCell id="buMhi8qow5tfLO_RZPMC-8" value="&lt;font color=&quot;#1e548a&quot; style=&quot;font-size: 18px;&quot; face=&quot;Times New Roman&quot;&gt;Verified Functional Compilers&lt;/font&gt;" style="text;html=1;strokeColor=none;fillColor=none;align=center;verticalAlign=middle;whiteSpace=wrap;rounded=0;" parent="1" vertex="1">
          <mxGeometry x="180" y="200" width="170" height="70" as="geometry" />
        </mxCell>
        <mxCell id="buMhi8qow5tfLO_RZPMC-9" value="&lt;font color=&quot;#ab5216&quot; style=&quot;font-size: 18px;&quot; face=&quot;Times New Roman&quot;&gt;Verified Imperative Infrastructures&amp;nbsp;&lt;/font&gt;" style="text;html=1;strokeColor=none;fillColor=none;align=center;verticalAlign=middle;whiteSpace=wrap;rounded=0;" parent="1" vertex="1">
          <mxGeometry x="500" y="200" width="170" height="70" as="geometry" />
        </mxCell>
        <mxCell id="buMhi8qow5tfLO_RZPMC-10" value="&lt;font color=&quot;#1e548a&quot; style=&quot;font-size: 16px;&quot; face=&quot;Times New Roman&quot;&gt;&lt;i&gt;CertiCoq&lt;br&gt;MiniML Compiler&lt;/i&gt;&lt;/font&gt;" style="text;html=1;strokeColor=none;fillColor=none;align=center;verticalAlign=middle;whiteSpace=wrap;rounded=0;" parent="1" vertex="1">
          <mxGeometry x="145" y="340" width="240" height="70" as="geometry" />
        </mxCell>
        <mxCell id="buMhi8qow5tfLO_RZPMC-11" value="&lt;font color=&quot;#ab5216&quot; style=&quot;font-size: 16px;&quot; face=&quot;Times New Roman&quot;&gt;&lt;i&gt;Vellvm&lt;br&gt;CompCertSSA&lt;/i&gt;&lt;/font&gt;" style="text;html=1;strokeColor=none;fillColor=none;align=center;verticalAlign=middle;whiteSpace=wrap;rounded=0;" parent="1" vertex="1">
          <mxGeometry x="480" y="340" width="230" height="70" as="geometry" />
        </mxCell>
        <mxCell id="buMhi8qow5tfLO_RZPMC-13" value="" style="endArrow=none;html=1;rounded=0;fillColor=#e51400;strokeColor=#CC0000;strokeWidth=3;" parent="1" edge="1">
          <mxGeometry width="50" height="50" relative="1" as="geometry">
            <mxPoint x="410" y="260" as="sourcePoint" />
            <mxPoint x="430" y="350" as="targetPoint" />
          </mxGeometry>
        </mxCell>
        <mxCell id="buMhi8qow5tfLO_RZPMC-14" value="" style="endArrow=none;html=1;rounded=0;fillColor=#e51400;strokeColor=#CC0000;strokeWidth=3;" parent="1" edge="1">
          <mxGeometry width="50" height="50" relative="1" as="geometry">
            <mxPoint x="430" y="260" as="sourcePoint" />
            <mxPoint x="410" y="350" as="targetPoint" />
          </mxGeometry>
        </mxCell>
        <mxCell id="buMhi8qow5tfLO_RZPMC-15" value="" style="html=1;shadow=0;dashed=0;align=center;verticalAlign=middle;shape=mxgraph.arrows2.arrow;dy=0.6;dx=40;direction=south;notch=0;fillColor=#f8cecc;strokeColor=#b85450;" parent="1" vertex="1">
          <mxGeometry x="385" y="380" width="70" height="70" as="geometry" />
        </mxCell>
        <mxCell id="buMhi8qow5tfLO_RZPMC-18" value="" style="edgeStyle=orthogonalEdgeStyle;rounded=0;orthogonalLoop=1;jettySize=auto;html=1;fillColor=#f8cecc;strokeColor=#b85450;" parent="1" source="buMhi8qow5tfLO_RZPMC-16" target="buMhi8qow5tfLO_RZPMC-17" edge="1">
          <mxGeometry relative="1" as="geometry" />
        </mxCell>
        <mxCell id="JksP4Xf4aLS9SCuGicCJ-8" value="" style="edgeStyle=orthogonalEdgeStyle;rounded=0;orthogonalLoop=1;jettySize=auto;html=1;fillColor=#fff2cc;strokeColor=#d6b656;dashed=1;" edge="1" parent="1" source="buMhi8qow5tfLO_RZPMC-16" target="JksP4Xf4aLS9SCuGicCJ-6">
          <mxGeometry relative="1" as="geometry" />
        </mxCell>
        <mxCell id="buMhi8qow5tfLO_RZPMC-16" value="&lt;span style=&quot;color: rgb(0, 0, 0); font-family: &amp;quot;Times New Roman&amp;quot;; font-size: 16px; font-style: normal; font-variant-ligatures: normal; font-variant-caps: normal; font-weight: 400; letter-spacing: normal; orphans: 2; text-align: center; text-indent: 0px; text-transform: none; widows: 2; word-spacing: 0px; -webkit-text-stroke-width: 0px; text-decoration-thickness: initial; text-decoration-style: initial; text-decoration-color: initial; float: none; display: inline !important;&quot;&gt;PCF in CPS&lt;/span&gt;" style="rounded=0;whiteSpace=wrap;html=1;shadow=1;fillColor=#f8cecc;strokeColor=#b85450;labelBackgroundColor=none;" parent="1" vertex="1">
          <mxGeometry x="270" y="470" width="100" height="60" as="geometry" />
        </mxCell>
        <mxCell id="JksP4Xf4aLS9SCuGicCJ-9" value="" style="edgeStyle=orthogonalEdgeStyle;rounded=0;orthogonalLoop=1;jettySize=auto;html=1;fillColor=#fff2cc;strokeColor=#d6b656;dashed=1;" edge="1" parent="1" source="buMhi8qow5tfLO_RZPMC-17" target="JksP4Xf4aLS9SCuGicCJ-7">
          <mxGeometry relative="1" as="geometry" />
        </mxCell>
        <mxCell id="buMhi8qow5tfLO_RZPMC-17" value="&lt;font face=&quot;Times New Roman&quot;&gt;&lt;span style=&quot;font-size: 16px;&quot;&gt;Simplified LLVM IR&lt;/span&gt;&lt;/font&gt;" style="rounded=0;whiteSpace=wrap;html=1;shadow=1;fillColor=#f8cecc;strokeColor=#b85450;labelBackgroundColor=none;" parent="1" vertex="1">
          <mxGeometry x="480" y="470" width="100" height="60" as="geometry" />
        </mxCell>
        <mxCell id="JksP4Xf4aLS9SCuGicCJ-6" value="&lt;font style=&quot;font-size: 16px;&quot; face=&quot;Times New Roman&quot;&gt;Semantics of&lt;br style=&quot;border-color: var(--border-color); font-size: 16px;&quot;&gt;&lt;span style=&quot;font-size: 16px;&quot;&gt;CPS&lt;/span&gt;&lt;/font&gt;" style="rounded=1;whiteSpace=wrap;html=1;fillColor=#fff2cc;strokeColor=#d6b656;" vertex="1" parent="1">
          <mxGeometry x="267.5" y="600" width="105" height="54.5" as="geometry" />
        </mxCell>
        <mxCell id="JksP4Xf4aLS9SCuGicCJ-7" value="&lt;font style=&quot;font-size: 16px;&quot; face=&quot;Times New Roman&quot;&gt;Semantics of&lt;br style=&quot;border-color: var(--border-color); font-size: 16px;&quot;&gt;SSA&lt;br&gt;&lt;/font&gt;" style="rounded=1;whiteSpace=wrap;html=1;fillColor=#fff2cc;strokeColor=#d6b656;" vertex="1" parent="1">
          <mxGeometry x="477.5" y="600" width="105" height="54.5" as="geometry" />
        </mxCell>
        <mxCell id="JksP4Xf4aLS9SCuGicCJ-12" value="&lt;font color=&quot;#666666&quot; face=&quot;Times New Roman&quot;&gt;&lt;span style=&quot;font-size: 16px;&quot;&gt;Extract Small-Step Operational Semantics&lt;/span&gt;&lt;/font&gt;" style="text;html=1;strokeColor=none;fillColor=none;align=center;verticalAlign=middle;whiteSpace=wrap;rounded=0;" vertex="1" parent="1">
          <mxGeometry x="319.5" y="530" width="201" height="70" as="geometry" />
        </mxCell>
        <mxCell id="JksP4Xf4aLS9SCuGicCJ-13" value="&lt;font color=&quot;#990000&quot; style=&quot;font-size: 16px;&quot; face=&quot;Times New Roman&quot;&gt;$$\mathcal{G}$$&lt;/font&gt;" style="text;html=1;strokeColor=none;fillColor=none;align=center;verticalAlign=middle;whiteSpace=wrap;rounded=0;" vertex="1" parent="1">
          <mxGeometry x="385" y="470" width="70" height="30" as="geometry" />
        </mxCell>
        <mxCell id="JksP4Xf4aLS9SCuGicCJ-15" value="" style="endArrow=classic;html=1;rounded=0;entryX=1;entryY=0.5;entryDx=0;entryDy=0;exitX=0;exitY=0.5;exitDx=0;exitDy=0;strokeColor=#d6b656;fillColor=#fff2cc;" edge="1" parent="1" source="JksP4Xf4aLS9SCuGicCJ-7" target="JksP4Xf4aLS9SCuGicCJ-6">
          <mxGeometry width="50" height="50" relative="1" as="geometry">
            <mxPoint x="390" y="550" as="sourcePoint" />
            <mxPoint x="440" y="500" as="targetPoint" />
          </mxGeometry>
        </mxCell>
        <mxCell id="JksP4Xf4aLS9SCuGicCJ-16" value="&lt;font color=&quot;#9e8640&quot; face=&quot;Times New Roman&quot;&gt;&lt;span style=&quot;font-size: 16px;&quot;&gt;&lt;i&gt;Simulation&lt;/i&gt;&lt;/span&gt;&lt;/font&gt;" style="text;html=1;strokeColor=none;fillColor=none;align=center;verticalAlign=middle;whiteSpace=wrap;rounded=0;" vertex="1" parent="1">
          <mxGeometry x="340" y="630" width="170.5" height="30" as="geometry" />
        </mxCell>
      </root>
    </mxGraphModel>
  </diagram>
</mxfile>
